<?xml version="1.0" encoding="utf-8"?>
<!-- Generator: Adobe Illustrator 23.0.1, SVG Export Plug-In . SVG Version: 6.00 Build 0)  -->
<svg version="1.1" id="Layer_1" xmlns="http://www.w3.org/2000/svg" xmlns:xlink="http://www.w3.org/1999/xlink" x="0px" y="0px"
	 viewBox="0 0 786.8 156" style="enable-background:new 0 0 786.8 156;" xml:space="preserve">
<style type="text/css">
	.st0{fill:#FFFFFF;}
	.st1{fill:#ED1C6B;}
	.st2{fill:#41109C;}
</style>
<g>
	<g>
		<path class="st0" d="M784.2,70.2c-6.4-5.6-12.8-7.3-21.4-7.3c-10,0-23.2,4.5-23.2,17.2c0,12.5,12.4,16.3,22.8,17.1
			c7.8,0.4,10.9,2,10.9,5.8c0,4-4.8,6.7-9.9,6.6c-6.1-0.1-15.1-3.3-19-7.7l-6.7,9.7c8,8.4,16.7,9.8,25.5,9.8
			c15.7,0,23.7-8.4,23.7-18.1c0-14.6-13.2-17-23.6-17.6c-7-0.4-10.3-2.5-10.3-6c0-3.5,3.6-5.5,10-5.5c5.2,0,9.7,1.2,13.6,4.9
			L784.2,70.2z M717.3,64.6l-10,24.1l-5.7,15.2l-5.2-15.5l-8.4-23.8h-15.9l22,54.2l-10.3,23.9h15l33.6-78H717.3z M636.8,75.4
			c21.4,0,21.4,33.4,0,33.4c-9,0-16.3-6.3-16.3-16.7C620.5,81.5,627.8,75.4,636.8,75.4 M653.1,72.1c-3.1-5.5-10.2-8.9-17.5-8.9
			c-16.1-0.1-28.7,9.8-28.7,28.8c0,19.3,12.1,29.4,28.4,29.3c6.1-0.1,14.7-3.2,17.9-9.7l0.7,8h12.8v-55h-13.1L653.1,72.1z
			 M583.3,41.6V72c-3.2-5.7-12.3-8.8-18.1-8.8c-16.1,0-28,9.8-28,28.8c0,18.1,12.2,28.8,28.4,28.8c6.7,0,13.5-2.2,17.8-8.8l0.9,7.6
			H597v-78H583.3z M566.5,75.9c8.6,0,16,6.5,16,16.1c0,9.9-7.4,16.2-16,16.2c-8.7,0-15.6-6.6-15.6-16.2
			C550.8,82.1,557.8,75.9,566.5,75.9 M497.4,75.4c21.4,0,21.4,33.4,0,33.4c-9,0-16.3-6.3-16.3-16.7
			C481.1,81.5,488.3,75.4,497.4,75.4 M513.7,72.1c-3.1-5.5-10.2-8.9-17.5-8.9c-16.1-0.1-28.7,9.8-28.7,28.8
			c0,19.3,12.1,29.4,28.4,29.3c6.1-0.1,14.7-3.2,17.9-9.7l0.7,8h12.8v-55h-13.1L513.7,72.1z M406.1,64.4l-11.9,41.4l-12.6-41.4
			h-15.2l19.3,55.4h15.9l5.7-16.3l4.9-18.4l4.9,18.4l5.7,16.3h15.9l19.2-55.4h-15.1l-12.6,41.4l-12.1-41.4H406.1z M330.7,75.8
			c9.2,0,15,8,15,16.3c0,8.4-5,16.2-15,16.2c-9.9,0-15-7.8-15-16.2C315.7,83.9,320.8,75.8,330.7,75.8 M330.6,63.4
			c-17.5,0-28.5,13-28.5,28.7c0,15.9,10.7,28.7,28.6,28.7c17.9,0,28.7-12.8,28.7-28.7C359.4,76.4,348.1,63.4,330.6,63.4
			 M291.8,119.6V90.7c0-17.3-10.4-27-23.3-27c-6.9,0-12.5,2.8-18.1,8.3l-0.9-7.5h-12.2v55.2h13.5V91.5c0-8.4,5.7-15.4,14.1-15.4
			c8.7,0,13.3,6.4,13.3,14.7v28.8H291.8z M229.5,41.4h-18.3l-29.7,33v-33h-14.7v78.2h14.7V85l32.7,34.6h18.2v-0.9l-37.6-39.4
			l34.7-37.4V41.4z"/>
		<path class="st1" d="M42.1,0L42.1,0c11.8,0,21.4,9.6,21.4,21.4v113.3c0,11.8-9.6,21.4-21.4,21.4h0c-11.8,0-21.4-9.6-21.4-21.4
			V21.4C20.7,9.6,30.4,0,42.1,0"/>
		<path class="st0" d="M115.7,23.6L115.7,23.6c5.9,10.2,2.4,23.3-7.8,29.2L64.1,78l43.7,25.2c10.2,5.9,13.7,19,7.8,29.2
			c-5.9,10.2-19,13.7-29.2,7.8L10.7,96.5c-1.7-1-3.1-2.1-4.4-3.4L6,92.9l0,0c-1.2-1.2-2.3-2.6-3.2-4.2C0.9,85.3,0,81.7,0,78
			c0-3.6,0.9-7.3,2.8-10.7c0.9-1.6,2-2.9,3.2-4.2l0,0l0.2-0.2c1.3-1.3,2.8-2.5,4.4-3.4l75.8-43.8C96.7,9.9,109.8,13.4,115.7,23.6"/>
	</g>
	<polygon class="st2" points="20.7,102.3 63.5,127 63.5,29 20.7,53.7 	"/>
</g>
</svg>
