<?xml version="1.0" encoding="utf-8"?>
<!-- Generator: Adobe Illustrator 23.0.1, SVG Export Plug-In . SVG Version: 6.00 Build 0)  -->
<svg version="1.1" xmlns="http://www.w3.org/2000/svg" xmlns:xlink="http://www.w3.org/1999/xlink" x="0px" y="0px"
	 viewBox="0 0 850 320" style="enable-background:new 0 0 850 320;" xml:space="preserve">
<style type="text/css">
	.st0{fill:#41109C;}
	.st1{fill:#CD4843;}
	.st2{clip-path:url(#SVGID_2_);fill:#41109C;}
	.st3{clip-path:url(#SVGID_2_);}
	.st4{fill:none;stroke:#FFFFFF;stroke-width:2;stroke-miterlimit:10;}
	.st5{fill:#FCCA0E;}
	.st6{fill:#FFFFFF;}
	.st7{fill:#ED1C6B;}
	.st8{fill:#DBF0F7;}
	.st9{fill:#8A3A2C;}
	.st10{fill:#935145;}
	.st11{fill:#E8664E;}
	.st12{fill:#15213D;}
	.st13{fill:#29155A;}
	.st14{fill:#35255A;}
	.st15{fill:#1B2A4D;}
	.st16{opacity:0.4;fill:#D8D8FF;}
	.st17{clip-path:url(#SVGID_4_);}
	.st18{fill:#E9FFFF;}
	.st19{fill:#39304A;}
	.st20{fill:#FFFA5A;}
	.st21{fill:none;stroke:#FFFFFF;stroke-width:1.1956;stroke-miterlimit:10;}
</style>
<g id="OBJECTS">
</g>
<g id="DESIGNED_BY_FREEPIK">
	<path class="st0" d="M432.9,59.8c-44.7-3.9-57.6,13.4-87.3-17C333.2,30,322.5,14.5,311.1,0H0v319.5c2.6,0.2,5.3,0.4,8.1,0.5
		c46.7,1.4,39.7-32,72.9-45.6c36.7-15,97.4,30,133.4,25.6c58.2-7.1,94.4-62.1,128.2-74c134.7-47.8,145.8,12,180-27.9
		C580,130.9,519.7,67.3,432.9,59.8z"/>
	<path class="st0" d="M544.8,0c-1,11.8,1.6,23.7,8.1,34.1c15.5,24.7,51.8,38.8,85.6,33.2c23.6-3.9,47.5-16.4,70-10.2
		c13.3,3.7,22.6,13.2,31.4,22.1c15.9,16.2,33.1,32.3,55.7,41.8c16.4,6.9,36.3,9.8,54.4,6.3V0H544.8z"/>
	<g>
		<path class="st1" d="M454.8,235.6c-1-1.7-2.1-4.1-1.8-5.9c0.3-1.8,1.2-4.8,2.9-2.2c0,0-0.6,4.9-0.1,6
			C456.3,234.6,454.9,234.9,454.8,235.6z"/>
		<g>
			<path class="st0" d="M465.7,245.2c-5.9,5.2-12.5-6.1-12.7-7.8c-0.5-4.3,3.1-8.2,3.5-2.9c0.4,5.3,5,7.5,8,7.1
				C467.5,241.2,464.7,245.7,465.7,245.2z"/>
		</g>
	</g>
	<g>
		<path class="st0" d="M568.8,302.9l8,1.6c9.2,1.9,18.4-2.5,22.9-10.7l45.8-84.8L594,198.6L554.3,272
			C547.5,284.6,554.8,300.1,568.8,302.9z"/>
		<g>
			<defs>
				<path id="SVGID_1_" d="M631.1,220.6l34.2,6.9c21.9,4.4,43.3-9.7,47.7-31.7l1.9-9.2c4.4-21.9-9.7-43.3-31.7-47.7l-34.2-6.9
					L631.1,220.6z"/>
			</defs>
			<clipPath id="SVGID_2_">
				<use xlink:href="#SVGID_1_"  style="overflow:visible;"/>
			</clipPath>
			<path class="st2" d="M631.1,220.6l34.2,6.9c21.9,4.4,43.3-9.7,47.7-31.7l1.9-9.2c4.4-21.9-9.7-43.3-31.7-47.7l-34.2-6.9
				L631.1,220.6z"/>
			<g class="st3">
				<line class="st4" x1="715.2" y1="232.7" x2="622.8" y2="214"/>
				<line class="st4" x1="717.9" y1="219.5" x2="625.5" y2="200.8"/>
				<line class="st4" x1="720.6" y1="206.3" x2="628.1" y2="187.6"/>
				<line class="st4" x1="723.2" y1="193.1" x2="630.8" y2="174.4"/>
				<line class="st4" x1="725.9" y1="179.9" x2="633.5" y2="161.2"/>
				<line class="st4" x1="728.6" y1="166.6" x2="636.2" y2="147.9"/>
				<line class="st4" x1="731.3" y1="153.4" x2="638.8" y2="134.7"/>
			</g>
		</g>
		<path class="st5" d="M401.8,128c-11.1,55.1-8.2,102.1,6.5,105.1c12.5,2.5,29.5-27.5,41.2-70.3c2.1-7.6,4-15.7,5.7-24
			c1.7-8.3,3.1-16.5,4.1-24.3c5.9-44,1.9-78.2-10.6-80.8C433.9,30.7,413,73,401.8,128z"/>
		<path class="st6" d="M654.7,133.3L452.1,35.4c-1.1-0.8-2.2-1.4-3.4-1.7c-14.7-3-35.7,39.2-46.9,94.3
			c-11.1,55.1-8.2,102.1,6.5,105.1c1.2,0.2,2.5,0.2,3.8-0.2l224.7-11.4C656.5,216.3,670.2,146.6,654.7,133.3z"/>
		<path class="st7" d="M403.8,128.4c-10.2,50.6-8.7,93.5,3.4,96c10.3,2.1,24.9-25.7,35.3-65c1.9-7,3.6-14.4,5.1-22.1
			c1.5-7.7,2.8-15.1,3.8-22.3c5.7-40.3,3-71.6-7.3-73.7C432.1,38.9,414,77.9,403.8,128.4z"/>
		<path class="st8" d="M411.3,129.9c-2.8,13.7,6.1,27,19.8,29.8c4,0.8,7.9,0.6,11.5-0.3c1.9-7,3.6-14.4,5.1-22.1
			c1.5-7.7,2.8-15.1,3.8-22.3c-3-2.3-6.5-4-10.5-4.8C427.4,107.4,414,116.3,411.3,129.9z"/>
	</g>
	<g>
		<g>
			<path class="st0" d="M653,286.7h129.8c1.7,0,3-1.3,3-3v-25.4c0-1.7-1.3-3-3-3H653V286.7z"/>
			<path class="st6" d="M653,284.1h121.5c1.4,0,2.5-1.1,2.5-2.5v-21.2c0-1.4-1.1-2.5-2.5-2.5H653V284.1z"/>
			<rect x="653" y="263.3" class="st0" width="124" height="2.2"/>
			<rect x="653" y="269.9" class="st0" width="124" height="2.2"/>
			<rect x="653" y="276.4" class="st0" width="124" height="2.2"/>
		</g>
		<g>
			<path class="st7" d="M632.3,310.6H762v-23.7H632.3c-1.7,0-3.1,1.4-3.1,3.1v17.5C629.2,309.2,630.6,310.6,632.3,310.6z"/>
			<path class="st6" d="M637.6,307.2H762v-16.9H637.6c-1.2,0-2.2,1-2.2,2.2V305C635.4,306.2,636.4,307.2,637.6,307.2z"/>
			<rect x="635.4" y="292.8" class="st0" width="126.6" height="2.2"/>
			<rect x="635.4" y="299.8" class="st0" width="126.6" height="2.2"/>
		</g>
	</g>
	<g>
		<g>
			<g>
				<g>
					<path class="st9" d="M715.9,255.3c3.4,0,5.5-2.4,5.5-2.4l0.2-2l1.5,0.9l0.8-0.5l-2.8-4.5l-2.3,1.5c0,0,1.1,1.5,0.1,2.8
						C717.4,253,713.8,255.3,715.9,255.3z"/>
					<g>
						<path class="st7" d="M718,247.2c1.3,2.1,2.7,2.3,5.1,1.2c-2.1-20.7,0.9-25.3,6.2-42.4c-1.9-1.3-3.7-2.6-5.6-3.9
							C716.5,219.5,715.6,233.4,718,247.2z"/>
					</g>
				</g>
				<g>
					<path class="st10" d="M727.2,255.3c3.4,0,5.5-2.4,5.5-2.4l0.2-2l1.5,0.9l0.8-0.5l-2.8-4.5l-2.3,1.5c0,0,1.1,1.5,0.1,2.8
						C728.7,253,725.1,255.3,727.2,255.3z"/>
					<polygon class="st7" points="730,248.9 734.2,248.8 733.7,202.9 725.2,206.8 					"/>
				</g>
			</g>
			<g>
				<path class="st1" d="M725,176.3l4.5,5l-4.2,2.9c0,0-3.4-4.8-4.1-5.2C720.5,178.6,725,176.3,725,176.3z"/>
				<path class="st6" d="M727.4,178.9c0,0-2,1.9-3.2,5.8c-0.9,3-0.3,10.1-0.8,13.9c-0.4,2.7-2.8,10.4-2.8,10.4s10,3.5,13.3-0.9
					c1.3-1.7-1.9-8.4-0.9-20.1C733.4,181.6,729.6,179.6,727.4,178.9z"/>
				<g>
					<path class="st11" d="M714.7,194.3c-3.1,0-6-1.5-9.2-2.3c-0.5-0.1-3.2-1.1-2.5-1.7c1.4-1.4,4.3-0.9,6.8,0
						c1.7,0.6,2.7,0.9,4.1,1.2C716.2,192,715.1,193.7,714.7,194.3z"/>
					<path class="st6" d="M724.2,184.7c-1.4,6.3-11.7,5.8-14.9,5.2c-2.8-0.5-4.9,1.4-3.1,2.4c5.9,3.3,16.1,2.5,19.3-0.8
						C728.8,188.3,726.7,186.1,724.2,184.7z"/>
				</g>
			</g>
			<g>
				<g>
					<path class="st11" d="M717.7,176.9c0.8,2.4,1.5,5.2,3.4,4.6c1.9-0.6,4.2-4.5,3.4-6.9c-0.8-2.4-3-3.8-4.9-3.1
						C717.8,172.1,716.9,174.6,717.7,176.9z"/>
				</g>
				<path class="st12" d="M718.2,170.7c-1.3,0.4-0.7,1.3-0.6,2.2c-0.6,0-1.4-0.1-1.7,0.5c-0.4,0.6,0.2,1.8,0.7,2.2
					c1.2,0.9,2.8-1.1,4-1.3c1-0.2,2.2,0.5,2.2,1.3c0,0.5,2.4,1.8,3.2,1.7c0.6,0,0.8-0.8,0.7-1.7c-0.1-0.7-0.7-1-0.8-1.7
					c-0.1-0.7-0.2-1.3-0.5-1.9c-0.5-1.1-1.8-2.6-3.1-2.7c-0.9-0.1-1.1,0.6-1.7,1C719.8,170.8,718.9,170.5,718.2,170.7z"/>
				<path class="st6" d="M718.9,179.7l1.1-0.4C720,179.3,720.3,182,718.9,179.7z"/>
			</g>
		</g>
	</g>
	<g>
		<g>
			<g>
				<path class="st13" d="M452.9,316.5l11.6-0.1l-0.1-5.5l-3,0l-1.7,2.8c-1.6,0.4-4.8,0.3-5.8,1.6L452.9,316.5z"/>
				<g>
					<path class="st1" d="M461.5,311l3,0c-0.4-15.1-3-24.3,6-42.8c-2.1-1.3-4.3-2.6-6.4-3.8C454.7,284.4,457.4,289.5,461.5,311z"/>
				</g>
			</g>
			<g>
				<path class="st14" d="M465.9,316.5l11.6-0.1l-0.1-5.5l-3,0l-1.7,2.8c-1.6,0.4-4.8,0.3-5.8,1.6L465.9,316.5z"/>
				<polygon class="st11" points="474.5,311 477.4,311 475.2,264.8 465.9,269.1 				"/>
			</g>
		</g>
		<g>
			<path class="st1" d="M470.3,231.5l-0.7,9.4l-4.2,2.4c0,0,0.4-7.1-0.5-7.6C464,235.3,470.3,231.5,470.3,231.5z"/>
			<path class="st0" d="M469.7,238.7c0,0-4.3,3.8-4.3,1.2c0-1.4-4,4.7-4.5,6.7c-0.4,1.7,0.2,5.3,0.2,5.3l-5.1,37
				c0,0,19.4,3,21.8-2.6c3.7-8.4-5.9-28.5-3.8-41.5C474.3,242.9,472.2,239.5,469.7,238.7z"/>
			<g>
				<path class="st11" d="M485.7,236c1.5-1.8,3.1-4.3,2.7-6.3c-0.4-2-1.8-5.2-4.3-2.4c0,0,0.9,5.2,0.2,6.4
					C483.5,234.9,485.4,235.3,485.7,236z"/>
				<g>
					<path class="st0" d="M469.4,246.3c8.8,5.6,18.6-6.6,18.9-8.4c0.8-4.6-4.6-8.8-5.2-3.1c-0.6,5.7-7.4,8-11.8,7.6
						C466.9,242,471,246.8,469.4,246.3z"/>
				</g>
			</g>
		</g>
		<g>
			<path class="st11" d="M463.2,231.2c-0.1,2.8-0.4,6.2,1.8,6.2c2.3,0.1,6.3-3.2,6.4-6c0.1-2.8-1.7-5.2-4-5.3
				C465.1,226.1,463.2,228.3,463.2,231.2z"/>
			<path class="st15" d="M472.6,228.3c0.8,1.1,0.9,2.7,0.4,4c-0.5,1.3-1.7,2.3-3,2.6c0.4-0.6,0-1.4-0.4-2c-0.4-0.6-0.9-1.3-0.7-2
				c0.1-0.2,0.2-0.4,0.3-0.6c0.1-0.2,0.1-0.5-0.1-0.7c-0.1-0.1-0.3-0.1-0.4-0.1c-2.2-0.2-4.4,0.5-6.1,1.9c0.1-1.1,0.3-2.1,0.7-3.1
				c0.4-1,0.9-1.9,1.8-2.6c0.8-0.7,1.9-0.9,3-0.8c1.5,0.1,2.2,1.9,2.2,1.9S471.4,226.5,472.6,228.3z"/>
			<path class="st6" d="M463.3,234l2.1,0.1C465.4,234.2,464,236.8,463.3,234z"/>
		</g>
	</g>
	<g>
		<g>
			
				<rect x="570.3" y="214.6" transform="matrix(-0.9428 0.3335 -0.3335 -0.9428 1196.0856 270.9314)" class="st7" width="9.1" height="47.1"/>
			<path class="st7" d="M527,195.8c6.2,17.5,25.4,26.7,43,20.5c17.5-6.2,26.7-25.5,20.5-43c-6.2-17.5-25.4-26.7-43-20.5
				C530,159,520.8,178.2,527,195.8z M554.6,154.9c16.4-2.3,31.5,9.1,33.8,25.4c2.3,16.4-9.1,31.5-25.4,33.8
				c-16.4,2.3-31.5-9.1-33.8-25.4C526.8,172.4,538.2,157.2,554.6,154.9z"/>
			
				<ellipse transform="matrix(0.9529 -0.3034 0.3034 0.9529 -29.6558 178.2337)" class="st16" cx="558.7" cy="184.6" rx="29.9" ry="29.9"/>
			<g>
				<defs>
					
						<ellipse id="SVGID_3_" transform="matrix(0.7973 -0.6036 0.6036 0.7973 1.8584 374.6391)" cx="558.7" cy="184.6" rx="29.9" ry="29.9"/>
				</defs>
				<clipPath id="SVGID_4_">
					<use xlink:href="#SVGID_3_"  style="overflow:visible;"/>
				</clipPath>
				<g class="st17">
					
						<rect x="565.7" y="131.1" transform="matrix(-0.672 0.7405 -0.7405 -0.672 1082.3167 -128.6006)" class="st18" width="7.8" height="88.5"/>
					
						<rect x="545.2" y="162.9" transform="matrix(-0.672 0.7405 -0.7405 -0.672 1068.2378 -58.9431)" class="st18" width="3.9" height="88.5"/>
					
						<rect x="551" y="142.3" transform="matrix(-0.672 0.7405 -0.7405 -0.672 1073.6057 -102.3309)" class="st18" width="17" height="88.5"/>
				</g>
			</g>
		</g>
		<g>
			<g>
				<path class="st11" d="M570.9,240.6l-1.5-4c0,0-2.3,2.5,0.9,8.1C573.3,249.8,570.9,240.6,570.9,240.6z"/>
				<path class="st6" d="M584.7,242.1c0,0-6.9,7.9-13.2-0.7c-0.4,1.1-1.1,4.1-1.1,4.1s6.5,11,16.2,1.9
					C588.6,245.6,584.7,242.1,584.7,242.1z"/>
			</g>
			<g>
				<path class="st7" d="M601.7,266.5c0.7,2.8-1.1,46.2-1.7,46.2c0,0-2-0.6-3.4-0.5c-1.5,0.1-2.8-29.2-3.7-33.7
					c-1.7,5.7-4.4,34-5.8,34.4c-1.7,0.5-3.1,1.4-3.3-0.9c-0.8-11.8,0.9-46.2,3.6-48.8C590.4,260.4,600.7,262.1,601.7,266.5z"/>
				<path class="st19" d="M581.9,314.9c0,1.6,2,1.7,3.1,1.7c1.2,0,2.4,0,2.4-2.5c0-1.6-0.9-3.2-2-3.2
					C584.2,310.9,581.9,313.2,581.9,314.9z"/>
				<path class="st19" d="M595.2,314.9c0,1.6,2,1.7,3.1,1.7c1.2,0,2.4,0,2.4-2.5c0-1.6-0.9-3.2-2-3.2
					C597.5,310.9,595.2,313.2,595.2,314.9z"/>
			</g>
			<g>
				<path class="st1" d="M593.4,230.8c0,0,1,6.2,2.9,7.9c1.9,1.7-5.7,1.2-5.7,1.2s0.6-3.1-1-3.3
					C587.9,236.6,593.4,230.8,593.4,230.8z"/>
				<path class="st6" d="M596.3,236.6c-0.2,2.4,2.9,2.9,4.5,3.6c3.1,1.4,2.6,24.4,0.9,26.4c0,0-12.4,2.9-15.3-0.4
					c-1.4-1.6-1.8-24-1.8-24c1-0.6,5.7-2.5,5.6-3.8C590.1,237.7,595.7,236.3,596.3,236.6z"/>
			</g>
			<g>
				<g>
					<path class="st11" d="M587.2,230.8c0,2.5-0.4,6.2,0.9,6.7c1.1,0.4,3.1-1.1,3.8-2.3c0.8-1.3,0.3-2.5,0.3-3.8
						c0-2.5,1.9-5.1-0.5-5.1C589.2,226.3,587.2,228.4,587.2,230.8z"/>
					<path class="st5" d="M596.7,232.2c0.9-2.7-0.3-6-3.7-6.7c-1.6-0.3-2.7,0.2-4.1,1.1c-1,0.6-2,2.5-3.4,1.9c1.1,2.2,2.3,0,3.6,0.9
						c0.7,0.5,0.4,2.4,1.2,2.6c0.2,0.1,1.2-0.1,1.4-0.1c0.7,1.4-0.6,3.8,1.9,3.2C594.9,234.9,596.3,233.3,596.7,232.2z"/>
				</g>
			</g>
		</g>
	</g>
	<path class="st6" d="M682.8,117.5h36.3l5.9,42.7l10.4-42.7c8,0,14.4-6.4,14.4-14.4V82.8c0-8-6.4-14.4-14.4-14.4h-52.6
		c-8,0-14.4,6.4-14.4,14.4v20.3C668.4,111.1,674.9,117.5,682.8,117.5z"/>
	<g>
		<path class="st5" d="M698,83.9c0,6.1,5,17.8,11.1,17.8c1.8,0,3.5-1,5-2.6c3.6-3.8,6.1-10.9,6.1-15.2c0-6.1-5-11.1-11.1-11.1
			C703,72.8,698,77.8,698,83.9z"/>
		<path class="st20" d="M709.1,72.8v28.9c0,0,2.1-1,5-2.6c3.6-3.8,6.1-10.9,6.1-15.2C720.3,77.8,715.3,72.8,709.1,72.8z"/>
		
			<rect x="704" y="99.2" transform="matrix(-1 -4.492596e-11 4.492596e-11 -1 1418.2738 208.7079)" class="st14" width="10.3" height="10.3"/>
		<g>
			<path class="st14" d="M710.9,96.6c0,2.2,0.5,4,1,4c0.6,0,1-1.8,1-4c0-2.2-0.5-4-1-4C711.4,92.6,710.9,94.4,710.9,96.6z"/>
			<path class="st14" d="M705.3,96.6c0,2.2,0.5,4,1,4s1-1.8,1-4c0-2.2-0.5-4-1-4S705.3,94.4,705.3,96.6z"/>
		</g>
		<line class="st21" x1="714.3" y1="102.7" x2="704" y2="102.7"/>
		<line class="st21" x1="714.3" y1="105.9" x2="704" y2="105.9"/>
		
			<rect x="707.3" y="109.5" transform="matrix(-1 -4.476165e-11 4.476165e-11 -1 1418.2737 221.223)" class="st14" width="3.6" height="2.3"/>
	</g>
</g>
</svg>
